# xmcd
#
# Track frame offsets: 
#        182
#        12495
#        30640
#        39080
#        55065
#        66170
#        80452
#        92802
#        104047
#        121290
#        131140
#        145720
#        157552
#        169835
#
# Disc length: 2394 seconds
#
# Revision: 0
# Processed by: cddbd v1.5.2PL0 Copyright (c) Steve Scherf et al.
# Submitted via: ExactAudioCopy v0.95b4
#
DISCID=b109580e
DTITLE=Karl Denver - Mexicalli Rose
DYEAR=1900
DGENRE=Country
TTITLE0=Mexicalli Rose
TTITLE1=Yellei
TTITLE2=California Zephyr
TTITLE3=Loveless Love
TTITLE4=Wimoweh
TTITLE5=My Lovely World
TTITLE6=Marcheta
TTITLE7=Love Me With All Your Heart
TTITLE8=Let Me Come In
TTITLE9=China Doll
TTITLE10=Don't Talk of Love
TTITLE11=Maybe
TTITLE12=Dry Tears
TTITLE13=Lonesome Traveller
EXTD=
EXTT0=
EXTT1=
EXTT2=
EXTT3=
EXTT4=
EXTT5=
EXTT6=
EXTT7=
EXTT8=
EXTT9=
EXTT10=
EXTT11=
EXTT12=
EXTT13=
PLAYORDER=
